<?xml version="1.0" encoding="UTF-8" standalone="no"?>
<!-- Created with Inkscape (http://www.inkscape.org/) -->

<svg
   width="600"
   height="130"
   viewBox="0 0 158.74999 34.395834"
   version="1.1"
   id="svg5"
   inkscape:version="1.1.1 (c3084ef, 2021-09-22)"
   sodipodi:docname="Logo_big_output.svg"
   xmlns:inkscape="http://www.inkscape.org/namespaces/inkscape"
   xmlns:sodipodi="http://sodipodi.sourceforge.net/DTD/sodipodi-0.dtd"
   xmlns="http://www.w3.org/2000/svg"
   xmlns:svg="http://www.w3.org/2000/svg">
  <sodipodi:namedview
     id="namedview7"
     pagecolor="#ffffff"
     bordercolor="#666666"
     borderopacity="1.0"
     inkscape:pageshadow="2"
     inkscape:pageopacity="0.0"
     inkscape:pagecheckerboard="0"
     inkscape:document-units="px"
     showgrid="false"
     units="px"
     inkscape:zoom="0.87285714"
     inkscape:cx="350"
     inkscape:cy="56.710311"
     inkscape:window-width="1440"
     inkscape:window-height="755"
     inkscape:window-x="0"
     inkscape:window-y="1105"
     inkscape:window-maximized="0"
     inkscape:current-layer="layer1" />
  <defs
     id="defs2">
    <rect
       x="39.399433"
       y="144.08936"
       width="354.59488"
       height="88.930145"
       id="rect10330" />
  </defs>
  <g
     inkscape:label="Layer 1"
     inkscape:groupmode="layer"
     id="layer1">
    <g
       aria-label="SEDERHANA"
       id="text1442"
       style="font-size:15.875px;line-height:1.25;stroke-width:0.264583">
      <path
         d="m 34.717238,9.7239669 q -0.6096,-0.4953 -1.2192,-0.7239 -0.6096,-0.24765 -1.1811,-0.24765 -0.7239,0 -1.1811,0.3429 -0.4572,0.3429 -0.4572,0.89535 0,0.3810001 0.2286,0.6286501 0.2286,0.24765 0.59055,0.43815 0.381,0.17145 0.8382,0.3048 0.47625,0.13335 0.93345,0.28575 1.8288,0.6096 2.667,1.6383 0.85725,1.00965 0.85725,2.64795 0,1.1049 -0.381,2.00025 -0.36195,0.89535 -1.08585,1.54305 -0.70485,0.628649 -1.7526,0.971549 -1.0287,0.36195 -2.34315,0.36195 -2.72415,0 -5.04825,-1.619249 l 1.6002,-3.0099 q 0.8382,0.74295 1.65735,1.1049 0.81915,0.36195 1.61925,0.36195 0.9144,0 1.35255,-0.4191 0.4572,-0.4191 0.4572,-0.9525 0,-0.32385 -0.1143,-0.55245 -0.1143,-0.24765 -0.381,-0.43815 -0.2667,-0.20955 -0.70485,-0.381 -0.4191,-0.17145 -1.0287,-0.381 -0.7239,-0.2286 -1.42875,-0.4953 -0.6858,-0.28575 -1.23825,-0.74295 -0.5334,-0.4572 -0.8763,-1.143 -0.32385,-0.70485 -0.32385,-1.77165 0,-1.0668001 0.3429,-1.9240501 0.36195,-0.8762999 0.9906,-1.4858999 0.6477,-0.62865 1.5621,-0.97155 0.93345,-0.3428999 2.07645,-0.3428999 1.0668,0 2.22885,0.3047999 1.16205,0.28575 2.22885,0.85725 z"
         style="font-size:19.05px;fill:#ff5555"
         id="path1050" />
      <path
         d="M 45.705615,11.076516 H 42.00674 v 2.00025 h 3.4925 v 2.63525 h -3.4925 v 2.06375 h 3.698875 v 2.63525 H 38.89524 V 8.4412665 h 6.810375 z"
         style="fill:#434343"
         id="path1052" />
      <path
         d="m 51.060451,17.775766 h 0.714375 q 0.809625,0 1.444625,-0.254 0.635,-0.254 1.063625,-0.6985 0.4445,-0.4445 0.66675,-1.04775 0.238125,-0.619125 0.238125,-1.349375 0,-0.714375 -0.238125,-1.3335 -0.238125,-0.619125 -0.682625,-1.063625 -0.428625,-0.4445 -1.063625,-0.6985 -0.635,-0.254 -1.42875,-0.254 h -0.714375 z m -3.1115,-9.3344995 h 4.60375 q 1.222375,0 2.286,0.492125 1.0795,0.492125 1.87325,1.3176245 0.809625,0.809625 1.27,1.905 0.460375,1.0795 0.460375,2.270125 0,1.17475 -0.460375,2.270125 -0.4445,1.0795 -1.254125,1.905 -0.79375,0.8255 -1.87325,1.317625 -1.063625,0.492125 -2.301875,0.492125 h -4.60375 z"
         style="fill:#434343"
         id="path1054" />
      <path
         d="m 67.223684,11.076516 h -3.698875 v 2.00025 h 3.4925 v 2.63525 h -3.4925 v 2.06375 h 3.698875 v 2.63525 H 60.413309 V 8.4412665 h 6.810375 z"
         style="fill:#434343"
         id="path1056" />
      <path
         d="m 72.578519,13.791141 h 0.587375 q 0.92075,0 1.412875,-0.381 0.492125,-0.381 0.492125,-1.095375 0,-0.714375 -0.492125,-1.095375 -0.492125,-0.381 -1.412875,-0.381 h -0.587375 z m 6.842125,6.619875 h -3.8735 l -2.968625,-4.60375 v 4.60375 h -3.1115 V 8.4412665 h 4.841875 q 1.000125,0 1.74625,0.301625 0.746125,0.28575 1.222375,0.79375 0.492125,0.5079995 0.73025,1.1747495 0.254,0.66675 0.254,1.42875 0,1.36525 -0.66675,2.2225 -0.650875,0.841375 -1.93675,1.143 z"
         style="fill:#434343"
         id="path1058" />
      <path
         d="m 83.833646,13.060891 h 4.492625 V 8.4412665 h 3.1115 V 20.411016 h -3.1115 v -4.937125 h -4.492625 v 4.937125 h -3.1115 V 8.4412665 h 3.1115 z"
         style="fill:#434343"
         id="path1060" />
      <path
         d="m 100.4704,15.966016 -1.397002,-3.984625 -1.397,3.984625 z m 0.8255,2.365375 h -4.445002 l -0.714375,2.079625 H 92.818648 L 97.374773,8.4412665 h 3.397247 l 4.55613,11.9697495 h -3.31788 z"
         style="fill:#434343"
         id="path1062" />
      <path
         d="M 106.70506,20.411016 V 8.4412665 h 3.1115 l 5.74675,7.3183745 V 8.4412665 h 3.09562 V 20.411016 h -3.09562 l -5.74675,-7.318375 v 7.318375 z"
         style="fill:#434343"
         id="path1064" />
      <path
         d="m 127.70941,15.966016 -1.397,-3.984625 -1.397,3.984625 z m 0.8255,2.365375 h -4.445 l -0.71437,2.079625 h -3.31788 l 4.55613,-11.9697495 h 3.39725 l 4.55612,11.9697495 h -3.31787 z"
         style="fill:#434343"
         id="path1066" />
    </g>
    <g
       aria-label="Simple Event Drawing Engine for Reliable and Honest Awarding with No Ambiguity"
       transform="scale(0.92218381,1.0843825)"
       id="text11150"
       style="font-size:4.3919px;line-height:1.25;fill:#434343;stroke-width:0.243994">
      <path
         d="M 4.9063446,26.511046 4.5010374,26.751228 Q 4.3873798,26.553935 4.2844447,26.49389 q -0.1072241,-0.06862 -0.2766382,-0.06862 -0.2080148,0 -0.3452617,0.117947 -0.1372469,0.115802 -0.1372469,0.291649 0,0.242327 0.3602731,0.390296 l 0.3302503,0.135103 q 0.4031627,0.16298 0.5897326,0.398873 0.18657,0.233749 0.18657,0.574722 0,0.456774 -0.3045165,0.754858 -0.306661,0.300227 -0.7612913,0.300227 -0.431041,0 -0.7119682,-0.255193 -0.2766382,-0.255194 -0.3452616,-0.718402 l 0.5060978,-0.111513 q 0.034312,0.29165 0.120091,0.403163 0.1544028,0.214448 0.4503414,0.214448 0.2337485,0 0.3881513,-0.156547 0.1544027,-0.156548 0.1544027,-0.39673 0,-0.0965 -0.027878,-0.175847 -0.025734,-0.08149 -0.083635,-0.147969 -0.055757,-0.06862 -0.1458248,-0.126525 -0.090068,-0.06005 -0.2144482,-0.113657 L 3.6968565,27.671211 Q 3.0170556,27.38385 3.0170556,26.830574 q 0,-0.37314 0.2852161,-0.624045 0.2852162,-0.253049 0.7098237,-0.253049 0.5725768,0 0.8942492,0.557566 z"
         style="font-family:Futura;-inkscape-font-specification:Futura"
         id="path915" />
      <path
         d="m 5.9893082,27.24017 v 2.088726 H 5.5067997 V 27.24017 Z m -0.555421,-0.868516 q 0,-0.126524 0.092213,-0.218737 0.092213,-0.09221 0.2208817,-0.09221 0.1308134,0 0.2230262,0.09221 0.092213,0.09007 0.092213,0.220882 0,0.130813 -0.092213,0.223026 -0.090068,0.09221 -0.2208817,0.09221 -0.1308135,0 -0.2230262,-0.09221 -0.092213,-0.09221 -0.092213,-0.225171 z"
         style="font-family:Futura;-inkscape-font-specification:Futura"
         id="path917" />
      <path
         d="m 6.6047747,27.24017 h 0.4825085 v 0.193003 q 0.1393914,-0.145825 0.2380376,-0.197292 0.1050796,-0.05361 0.2637713,-0.05361 0.3538396,0 0.5597099,0.308805 0.2273152,-0.308805 0.6154665,-0.308805 0.7055347,0 0.7055347,0.855648 v 1.290979 h -0.484653 v -1.160165 q 0,-0.300228 -0.072912,-0.424608 -0.075057,-0.126524 -0.2466155,-0.126524 -0.1994369,0 -0.2916496,0.150113 -0.090068,0.150114 -0.090068,0.482509 v 1.078675 h -0.484653 v -1.153732 q 0,-0.557565 -0.3216724,-0.557565 -0.2037258,0 -0.298083,0.152258 -0.092213,0.152258 -0.092213,0.480364 v 1.078675 H 6.6047747 Z"
         style="font-family:Futura;-inkscape-font-specification:Futura"
         id="path919" />
      <path
         d="M 10.613885,30.465471 H 10.131376 V 27.24017 h 0.482509 v 0.227315 q 0.285216,-0.285216 0.647633,-0.285216 0.431041,0 0.709824,0.317383 0.283072,0.315239 0.283072,0.795603 0,0.469642 -0.280928,0.782736 -0.278782,0.31095 -0.70339,0.31095 -0.366706,0 -0.656211,-0.293794 z M 11.761183,28.2974 q 0,-0.300228 -0.162981,-0.488942 -0.165125,-0.190859 -0.41603,-0.190859 -0.265915,0 -0.431041,0.184425 -0.165125,0.184426 -0.165125,0.484653 0,0.293794 0.165125,0.484653 0.162981,0.18657 0.428897,0.18657 0.250904,0 0.413885,-0.188714 0.16727,-0.188715 0.16727,-0.471786 z"
         style="font-family:Futura;-inkscape-font-specification:Futura"
         id="path921" />
      <path
         d="m 13.246237,25.706865 v 3.622031 h -0.482509 v -3.622031 z"
         style="font-family:Futura;-inkscape-font-specification:Futura"
         id="path923" />
      <path
         d="M 15.763859,28.39819 H 14.26701 q 0.0193,0.257338 0.16727,0.409596 0.147969,0.150114 0.379573,0.150114 0.180137,0 0.298083,-0.08578 0.115802,-0.08578 0.263772,-0.317384 l 0.407451,0.227316 q -0.09436,0.160836 -0.199436,0.276638 -0.10508,0.113657 -0.225171,0.188714 -0.120091,0.07291 -0.259483,0.107224 -0.139391,0.03431 -0.302372,0.03431 -0.467497,0 -0.750568,-0.300227 -0.283072,-0.302372 -0.283072,-0.802037 0,-0.495375 0.274494,-0.802036 0.276638,-0.302372 0.733413,-0.302372 0.461063,0 0.729124,0.293794 0.265916,0.291649 0.265916,0.80847 z m -0.495375,-0.394585 q -0.100791,-0.386006 -0.486798,-0.386006 -0.08792,0 -0.165125,0.02788 -0.0772,0.02573 -0.141536,0.0772 -0.06219,0.04932 -0.107224,0.120091 -0.04503,0.07077 -0.06862,0.160836 z"
         style="font-family:Futura;-inkscape-font-specification:Futura"
         id="path925" />
      <path
         d="m 19.563882,26.487456 h -1.327434 v 0.795603 h 1.288834 v 0.469642 h -1.288834 v 1.106553 h 1.327434 v 0.469642 h -1.827099 v -3.311081 h 1.827099 z"
         style="font-family:Futura;-inkscape-font-specification:Futura"
         id="path927" />
      <path
         d="m 20.391653,27.24017 0.54041,1.173032 0.538265,-1.173032 h 0.542554 l -1.085108,2.232406 -1.07653,-2.232406 z"
         style="font-family:Futura;-inkscape-font-specification:Futura"
         id="path929" />
      <path
         d="m 24.167013,28.39819 h -1.496848 q 0.0193,0.257338 0.167269,0.409596 0.14797,0.150114 0.379574,0.150114 0.180136,0 0.298083,-0.08578 0.115802,-0.08578 0.263771,-0.317384 l 0.407452,0.227316 q -0.09436,0.160836 -0.199437,0.276638 -0.10508,0.113657 -0.225171,0.188714 -0.120091,0.07291 -0.259482,0.107224 -0.139391,0.03431 -0.302372,0.03431 -0.467497,0 -0.750569,-0.300227 -0.283072,-0.302372 -0.283072,-0.802037 0,-0.495375 0.274494,-0.802036 0.276638,-0.302372 0.733413,-0.302372 0.461064,0 0.729124,0.293794 0.265916,0.291649 0.265916,0.80847 z m -0.495375,-0.394585 q -0.100791,-0.386006 -0.486798,-0.386006 -0.08792,0 -0.165125,0.02788 -0.0772,0.02573 -0.141536,0.0772 -0.06219,0.04932 -0.107224,0.120091 -0.04503,0.07077 -0.06862,0.160836 z"
         style="font-family:Futura;-inkscape-font-specification:Futura"
         id="path931" />
      <path
         d="m 24.695628,27.24017 h 0.484653 v 0.193003 q 0.253049,-0.250904 0.570433,-0.250904 0.364562,0 0.568288,0.229459 0.175847,0.195148 0.175847,0.636912 v 1.280256 h -0.484653 v -1.166599 q 0,-0.308805 -0.08578,-0.426752 -0.08363,-0.120091 -0.304517,-0.120091 -0.240182,0 -0.340972,0.158692 -0.09865,0.156547 -0.09865,0.546843 v 1.007907 h -0.484653 z"
         style="font-family:Futura;-inkscape-font-specification:Futura"
         id="path933" />
      <path
         d="m 27.603547,27.690511 v 1.638385 h -0.482509 v -1.638385 h -0.20587 V 27.24017 h 0.20587 v -0.765581 h 0.482509 v 0.765581 h 0.375284 v 0.450341 z"
         style="font-family:Futura;-inkscape-font-specification:Futura"
         id="path935" />
      <path
         d="m 29.754463,29.328896 v -3.311081 h 0.694812 q 0.499664,0 0.789169,0.09865 0.31095,0.0965 0.563999,0.328106 0.512532,0.467497 0.512532,1.228788 0,0.763436 -0.533977,1.235222 -0.26806,0.235893 -0.561854,0.328106 -0.274494,0.09221 -0.778447,0.09221 z m 0.499664,-0.469642 h 0.225171 q 0.336683,0 0.559709,-0.07077 0.223027,-0.07506 0.403163,-0.238038 0.368851,-0.336683 0.368851,-0.877093 0,-0.544698 -0.364562,-0.883527 -0.328106,-0.302372 -0.967161,-0.302372 h -0.225171 z"
         style="font-family:Futura;-inkscape-font-specification:Futura"
         id="path937" />
      <path
         d="m 32.85324,27.24017 h 0.482509 v 0.18657 q 0.132958,-0.139392 0.235893,-0.190859 0.105079,-0.05361 0.24876,-0.05361 0.190859,0 0.398874,0.12438 l -0.220882,0.441763 q -0.137247,-0.09865 -0.26806,-0.09865 -0.394585,0 -0.394585,0.596166 v 1.082964 H 32.85324 Z"
         style="font-family:Futura;-inkscape-font-specification:Futura"
         id="path939" />
      <path
         d="m 36.007774,27.24017 h 0.484653 v 2.088726 h -0.484653 v -0.218738 q -0.298083,0.278783 -0.6412,0.278783 -0.433185,0 -0.716257,-0.313094 -0.280927,-0.319528 -0.280927,-0.797748 0,-0.469641 0.280927,-0.782736 0.280927,-0.313094 0.70339,-0.313094 0.364562,0 0.654067,0.300227 z m -1.145153,1.037929 q 0,0.300228 0.160836,0.488942 0.165125,0.190859 0.416029,0.190859 0.268061,0 0.433186,-0.184425 0.165125,-0.190859 0.165125,-0.484653 0,-0.293795 -0.165125,-0.484653 -0.165125,-0.18657 -0.428897,-0.18657 -0.24876,0 -0.416029,0.188714 -0.165125,0.190859 -0.165125,0.471786 z"
         style="font-family:Futura;-inkscape-font-specification:Futura"
         id="path941" />
      <path
         d="m 37.405976,27.24017 0.546843,1.192332 0.589733,-1.383191 0.594021,1.383191 0.54041,-1.192332 h 0.54041 l -1.093686,2.245273 -0.581155,-1.344591 -0.587588,1.344591 -1.091542,-2.245273 z"
         style="font-family:Futura;-inkscape-font-specification:Futura"
         id="path943" />
      <path
         d="m 41.021572,27.24017 v 2.088726 H 40.539064 V 27.24017 Z m -0.555421,-0.868516 q 0,-0.126524 0.09221,-0.218737 0.09221,-0.09221 0.220882,-0.09221 0.130813,0 0.223026,0.09221 0.09221,0.09007 0.09221,0.220882 0,0.130813 -0.09221,0.223026 -0.09007,0.09221 -0.220882,0.09221 -0.130813,0 -0.223026,-0.09221 -0.09221,-0.09221 -0.09221,-0.225171 z"
         style="font-family:Futura;-inkscape-font-specification:Futura"
         id="path945" />
      <path
         d="m 41.63704,27.24017 h 0.484653 v 0.193003 q 0.253049,-0.250904 0.570433,-0.250904 0.364562,0 0.568288,0.229459 0.175847,0.195148 0.175847,0.636912 v 1.280256 h -0.484653 v -1.166599 q 0,-0.308805 -0.08578,-0.426752 -0.08364,-0.120091 -0.304517,-0.120091 -0.240182,0 -0.340972,0.158692 -0.09865,0.156547 -0.09865,0.546843 v 1.007907 H 41.63704 Z"
         style="font-family:Futura;-inkscape-font-specification:Futura"
         id="path947" />
      <path
         d="m 46.067539,29.279572 q 0,0.14797 -0.01072,0.259483 -0.0086,0.113657 -0.02573,0.199437 -0.05147,0.235893 -0.201581,0.405307 -0.283072,0.325961 -0.778447,0.325961 -0.418174,0 -0.688379,-0.22517 -0.278783,-0.231605 -0.321673,-0.641201 h 0.484653 q 0.02788,0.154403 0.09221,0.238038 0.150114,0.195148 0.437475,0.195148 0.529687,0 0.529687,-0.649778 v -0.29165 q -0.287361,0.293794 -0.662645,0.293794 -0.426752,0 -0.699102,-0.308805 -0.274493,-0.313095 -0.274493,-0.782736 0,-0.456775 0.255193,-0.776303 0.274494,-0.338828 0.724835,-0.338828 0.394585,0 0.656212,0.293794 V 27.24017 h 0.482508 z m -0.463208,-0.99075 q 0,-0.304517 -0.16298,-0.486798 -0.165126,-0.18657 -0.422464,-0.18657 -0.274493,0 -0.433185,0.203726 -0.14368,0.182281 -0.14368,0.471786 0,0.285216 0.14368,0.467497 0.156547,0.199437 0.433185,0.199437 0.276639,0 0.437475,-0.201581 0.147969,-0.182281 0.147969,-0.467497 z"
         style="font-family:Futura;-inkscape-font-specification:Futura"
         id="path949" />
      <path
         d="m 49.955488,26.487456 h -1.327435 v 0.795603 h 1.288834 v 0.469642 h -1.288834 v 1.106553 h 1.327435 v 0.469642 h -1.827099 v -3.311081 h 1.827099 z"
         style="font-family:Futura;-inkscape-font-specification:Futura"
         id="path951" />
      <path
         d="m 50.523774,27.24017 h 0.484653 v 0.193003 q 0.253049,-0.250904 0.570433,-0.250904 0.364562,0 0.568288,0.229459 0.175847,0.195148 0.175847,0.636912 v 1.280256 h -0.484653 v -1.166599 q 0,-0.308805 -0.08578,-0.426752 -0.08364,-0.120091 -0.304517,-0.120091 -0.240182,0 -0.340972,0.158692 -0.09865,0.156547 -0.09865,0.546843 v 1.007907 h -0.484653 z"
         style="font-family:Futura;-inkscape-font-specification:Futura"
         id="path953" />
      <path
         d="m 54.954277,29.279572 q 0,0.14797 -0.01072,0.259483 -0.0086,0.113657 -0.02573,0.199437 -0.05147,0.235893 -0.201581,0.405307 -0.283072,0.325961 -0.778447,0.325961 -0.418175,0 -0.688379,-0.22517 -0.278783,-0.231605 -0.321673,-0.641201 h 0.484653 q 0.02788,0.154403 0.09221,0.238038 0.150114,0.195148 0.437474,0.195148 0.529688,0 0.529688,-0.649778 v -0.29165 q -0.287361,0.293794 -0.662645,0.293794 -0.426752,0 -0.699102,-0.308805 -0.274493,-0.313095 -0.274493,-0.782736 0,-0.456775 0.255193,-0.776303 0.274494,-0.338828 0.724835,-0.338828 0.394585,0 0.656212,0.293794 V 27.24017 h 0.482508 z m -0.463208,-0.99075 q 0,-0.304517 -0.162981,-0.486798 -0.165125,-0.18657 -0.422463,-0.18657 -0.274493,0 -0.433185,0.203726 -0.14368,0.182281 -0.14368,0.471786 0,0.285216 0.14368,0.467497 0.156547,0.199437 0.433185,0.199437 0.276639,0 0.437475,-0.201581 0.147969,-0.182281 0.147969,-0.467497 z"
         style="font-family:Futura;-inkscape-font-specification:Futura"
         id="path955" />
      <path
         d="m 56.050106,27.24017 v 2.088726 H 55.567598 V 27.24017 Z m -0.555421,-0.868516 q 0,-0.126524 0.09221,-0.218737 0.09221,-0.09221 0.220882,-0.09221 0.130813,0 0.223026,0.09221 0.09221,0.09007 0.09221,0.220882 0,0.130813 -0.09221,0.223026 -0.09007,0.09221 -0.220882,0.09221 -0.130813,0 -0.223026,-0.09221 -0.09221,-0.09221 -0.09221,-0.225171 z"
         style="font-family:Futura;-inkscape-font-specification:Futura"
         id="path957" />
      <path
         d="m 56.665574,27.24017 h 0.484653 v 0.193003 q 0.253049,-0.250904 0.570433,-0.250904 0.364562,0 0.568287,0.229459 0.175848,0.195148 0.175848,0.636912 v 1.280256 h -0.484653 v -1.166599 q 0,-0.308805 -0.08578,-0.426752 -0.08364,-0.120091 -0.304517,-0.120091 -0.240182,0 -0.340973,0.158692 -0.09865,0.156547 -0.09865,0.546843 v 1.007907 h -0.484653 z"
         style="font-family:Futura;-inkscape-font-specification:Futura"
         id="path959" />
      <path
         d="m 60.978127,28.39819 h -1.496849 q 0.0193,0.257338 0.16727,0.409596 0.147969,0.150114 0.379573,0.150114 0.180137,0 0.298083,-0.08578 0.115802,-0.08578 0.263771,-0.317384 l 0.407452,0.227316 q -0.09436,0.160836 -0.199437,0.276638 -0.105079,0.113657 -0.22517,0.188714 -0.120091,0.07291 -0.259483,0.107224 -0.139391,0.03431 -0.302372,0.03431 -0.467497,0 -0.750569,-0.300227 -0.283071,-0.302372 -0.283071,-0.802037 0,-0.495375 0.274493,-0.802036 0.276639,-0.302372 0.733413,-0.302372 0.461064,0 0.729124,0.293794 0.265916,0.291649 0.265916,0.80847 z m -0.495376,-0.394585 q -0.10079,-0.386006 -0.486797,-0.386006 -0.08792,0 -0.165125,0.02788 -0.0772,0.02573 -0.141536,0.0772 -0.06219,0.04932 -0.107224,0.120091 -0.04503,0.07077 -0.06862,0.160836 z"
         style="font-family:Futura;-inkscape-font-specification:Futura"
         id="path961" />
      <path
         d="m 63.358503,27.690511 v 1.638385 H 62.87385 V 27.690511 H 62.702291 V 27.24017 h 0.171559 v -0.806326 q 0,-0.394585 0.137247,-0.557565 0.188714,-0.227315 0.548987,-0.227315 0.128669,0 0.323817,0.07506 v 0.493231 l -0.04932,-0.02573 q -0.156547,-0.07935 -0.257338,-0.07935 -0.128669,0 -0.173703,0.09221 -0.04503,0.09007 -0.04503,0.347406 v 0.688379 h 0.525398 v 0.450341 z"
         style="font-family:Futura;-inkscape-font-specification:Futura"
         id="path963" />
      <path
         d="m 64.116576,28.269521 q 0,-0.452486 0.323817,-0.769869 0.323817,-0.317383 0.78917,-0.317383 0.467497,0 0.793458,0.319528 0.321673,0.319527 0.321673,0.78488 0,0.469642 -0.323817,0.787025 -0.325962,0.315239 -0.799892,0.315239 -0.469642,0 -0.787025,-0.321672 -0.317384,-0.317384 -0.317384,-0.797748 z m 0.493231,0.0086 q 0,0.313095 0.16727,0.495376 0.171559,0.184425 0.452486,0.184425 0.283071,0 0.452486,-0.182281 0.169414,-0.182281 0.169414,-0.486797 0,-0.304517 -0.169414,-0.486798 -0.171559,-0.184425 -0.452486,-0.184425 -0.276638,0 -0.448197,0.184425 -0.171559,0.184426 -0.171559,0.476075 z"
         style="font-family:Futura;-inkscape-font-specification:Futura"
         id="path965" />
      <path
         d="m 66.856153,27.24017 h 0.482508 v 0.18657 q 0.132958,-0.139392 0.235893,-0.190859 0.10508,-0.05361 0.24876,-0.05361 0.190859,0 0.398874,0.12438 l -0.220882,0.441763 q -0.137247,-0.09865 -0.26806,-0.09865 -0.394585,0 -0.394585,0.596166 v 1.082964 h -0.482508 z"
         style="font-family:Futura;-inkscape-font-specification:Futura"
         id="path967" />
      <path
         d="m 71.072203,27.917826 1.025063,1.41107 h -0.611178 l -0.945716,-1.355313 h -0.09007 v 1.355313 h -0.499664 v -3.311081 h 0.585444 q 0.656211,0 0.947861,0.246615 0.321672,0.274494 0.321672,0.724835 0,0.351695 -0.201581,0.604744 -0.201581,0.253049 -0.531832,0.323817 z m -0.6219,-0.379573 h 0.158692 q 0.709824,0 0.709824,-0.542554 0,-0.508243 -0.690524,-0.508243 h -0.177992 z"
         style="font-family:Futura;-inkscape-font-specification:Futura"
         id="path969" />
      <path
         d="m 74.332894,28.39819 h -1.496849 q 0.0193,0.257338 0.16727,0.409596 0.147969,0.150114 0.379573,0.150114 0.180136,0 0.298083,-0.08578 0.115802,-0.08578 0.263771,-0.317384 l 0.407452,0.227316 q -0.09436,0.160836 -0.199437,0.276638 -0.10508,0.113657 -0.225171,0.188714 -0.120091,0.07291 -0.259482,0.107224 -0.139391,0.03431 -0.302372,0.03431 -0.467497,0 -0.750569,-0.300227 -0.283072,-0.302372 -0.283072,-0.802037 0,-0.495375 0.274494,-0.802036 0.276638,-0.302372 0.733413,-0.302372 0.461064,0 0.729124,0.293794 0.265916,0.291649 0.265916,0.80847 z m -0.495376,-0.394585 q -0.10079,-0.386006 -0.486797,-0.386006 -0.08792,0 -0.165125,0.02788 -0.0772,0.02573 -0.141536,0.0772 -0.06219,0.04932 -0.107224,0.120091 -0.04503,0.07077 -0.06862,0.160836 z"
         style="font-family:Futura;-inkscape-font-specification:Futura"
         id="path971" />
      <path
         d="m 75.341873,25.706865 v 3.622031 h -0.482508 v -3.622031 z"
         style="font-family:Futura;-inkscape-font-specification:Futura"
         id="path973" />
      <path
         d="m 76.439842,27.24017 v 2.088726 H 75.957334 V 27.24017 Z m -0.555421,-0.868516 q 0,-0.126524 0.09221,-0.218737 0.09221,-0.09221 0.220882,-0.09221 0.130813,0 0.223026,0.09221 0.09221,0.09007 0.09221,0.220882 0,0.130813 -0.09221,0.223026 -0.09007,0.09221 -0.220882,0.09221 -0.130813,0 -0.223026,-0.09221 -0.09221,-0.09221 -0.09221,-0.225171 z"
         style="font-family:Futura;-inkscape-font-specification:Futura"
         id="path975" />
      <path
         d="m 78.595049,27.24017 h 0.484653 v 2.088726 h -0.484653 v -0.218738 q -0.298083,0.278783 -0.6412,0.278783 -0.433186,0 -0.716258,-0.313094 -0.280927,-0.319528 -0.280927,-0.797748 0,-0.469641 0.280927,-0.782736 0.280928,-0.313094 0.703391,-0.313094 0.364562,0 0.654067,0.300227 z m -1.145154,1.037929 q 0,0.300228 0.160836,0.488942 0.165126,0.190859 0.41603,0.190859 0.26806,0 0.433185,-0.184425 0.165126,-0.190859 0.165126,-0.484653 0,-0.293795 -0.165126,-0.484653 -0.165125,-0.18657 -0.428896,-0.18657 -0.24876,0 -0.41603,0.188714 -0.165125,0.190859 -0.165125,0.471786 z"
         style="font-family:Futura;-inkscape-font-specification:Futura"
         id="path977" />
      <path
         d="m 80.171242,25.706865 v 1.775631 q 0.289505,-0.300227 0.656211,-0.300227 0.422464,0 0.703391,0.315239 0.280927,0.313094 0.280927,0.780591 0,0.482509 -0.283072,0.797748 -0.280927,0.313094 -0.709823,0.313094 -0.362418,0 -0.647634,-0.278783 v 0.218738 h -0.482509 v -3.622031 z m 1.147298,2.592679 q 0,-0.300228 -0.162981,-0.488942 -0.165125,-0.193003 -0.413885,-0.193003 -0.265916,0 -0.433185,0.18657 -0.165125,0.184425 -0.165125,0.480364 0,0.304516 0.16298,0.486797 0.162981,0.18657 0.428897,0.18657 0.250904,0 0.416029,-0.18657 0.16727,-0.188714 0.16727,-0.471786 z"
         style="font-family:Futura;-inkscape-font-specification:Futura"
         id="path979" />
      <path
         d="m 82.804672,25.706865 v 3.622031 h -0.482508 v -3.622031 z"
         style="font-family:Futura;-inkscape-font-specification:Futura"
         id="path981" />
      <path
         d="M 85.322289,28.39819 H 83.82544 q 0.0193,0.257338 0.16727,0.409596 0.147969,0.150114 0.379573,0.150114 0.180137,0 0.298083,-0.08578 0.115802,-0.08578 0.263771,-0.317384 l 0.407452,0.227316 q -0.09436,0.160836 -0.199437,0.276638 -0.105079,0.113657 -0.22517,0.188714 -0.120091,0.07291 -0.259483,0.107224 -0.139391,0.03431 -0.302372,0.03431 -0.467497,0 -0.750569,-0.300227 -0.283071,-0.302372 -0.283071,-0.802037 0,-0.495375 0.274493,-0.802036 0.276639,-0.302372 0.733413,-0.302372 0.461064,0 0.729124,0.293794 0.265916,0.291649 0.265916,0.80847 z m -0.495376,-0.394585 q -0.10079,-0.386006 -0.486797,-0.386006 -0.08792,0 -0.165125,0.02788 -0.0772,0.02573 -0.141536,0.0772 -0.06219,0.04932 -0.107224,0.120091 -0.04503,0.07077 -0.06862,0.160836 z"
         style="font-family:Futura;-inkscape-font-specification:Futura"
         id="path983" />
      <path
         d="m 88.742739,27.24017 h 0.484653 v 2.088726 h -0.484653 v -0.218738 q -0.298083,0.278783 -0.641201,0.278783 -0.433185,0 -0.716257,-0.313094 -0.280927,-0.319528 -0.280927,-0.797748 0,-0.469641 0.280927,-0.782736 0.280927,-0.313094 0.703391,-0.313094 0.364562,0 0.654067,0.300227 z m -1.145154,1.037929 q 0,0.300228 0.160836,0.488942 0.165125,0.190859 0.41603,0.190859 0.26806,0 0.433185,-0.184425 0.165125,-0.190859 0.165125,-0.484653 0,-0.293795 -0.165125,-0.484653 -0.165125,-0.18657 -0.428896,-0.18657 -0.24876,0 -0.41603,0.188714 -0.165125,0.190859 -0.165125,0.471786 z"
         style="font-family:Futura;-inkscape-font-specification:Futura"
         id="path985" />
      <path
         d="m 89.836431,27.24017 h 0.484653 v 0.193003 q 0.253049,-0.250904 0.570432,-0.250904 0.364562,0 0.568288,0.229459 0.175848,0.195148 0.175848,0.636912 v 1.280256 h -0.484654 v -1.166599 q 0,-0.308805 -0.08578,-0.426752 -0.08364,-0.120091 -0.304516,-0.120091 -0.240182,0 -0.340973,0.158692 -0.09865,0.156547 -0.09865,0.546843 v 1.007907 h -0.484653 z"
         style="font-family:Futura;-inkscape-font-specification:Futura"
         id="path987" />
      <path
         d="m 93.786562,25.706865 h 0.484653 v 3.622031 h -0.484653 v -0.218738 q -0.285216,0.278783 -0.645489,0.278783 -0.428897,0 -0.711968,-0.313094 -0.280928,-0.319528 -0.280928,-0.797748 0,-0.467497 0.280928,-0.780591 0.278782,-0.315239 0.701245,-0.315239 0.366707,0 0.656212,0.300227 z m -1.145154,2.571234 q 0,0.300228 0.160836,0.488942 0.165126,0.190859 0.41603,0.190859 0.26806,0 0.433186,-0.184425 0.165125,-0.190859 0.165125,-0.484653 0,-0.293795 -0.165125,-0.484653 -0.165126,-0.18657 -0.428897,-0.18657 -0.24876,0 -0.41603,0.188714 -0.165125,0.190859 -0.165125,0.471786 z"
         style="font-family:Futura;-inkscape-font-specification:Futura"
         id="path989" />
      <path
         d="m 96.82744,27.313082 h 1.428225 v -1.295267 h 0.499664 v 3.311081 H 98.255665 V 27.782724 H 96.82744 v 1.546172 h -0.499665 v -3.311081 h 0.499665 z"
         style="font-family:Futura;-inkscape-font-specification:Futura"
         id="path991" />
      <path
         d="m 99.36222,28.269521 q 0,-0.452486 0.323817,-0.769869 0.323813,-0.317383 0.789173,-0.317383 0.46749,0 0.79345,0.319528 0.32168,0.319527 0.32168,0.78488 0,0.469642 -0.32382,0.787025 -0.32596,0.315239 -0.79989,0.315239 -0.469643,0 -0.787027,-0.321672 -0.317383,-0.317384 -0.317383,-0.797748 z m 0.493231,0.0086 q 0,0.313095 0.167269,0.495376 0.17156,0.184425 0.45249,0.184425 0.28307,0 0.45248,-0.182281 0.16942,-0.182281 0.16942,-0.486797 0,-0.304517 -0.16942,-0.486798 -0.17156,-0.184425 -0.45248,-0.184425 -0.27664,0 -0.4482,0.184425 -0.171559,0.184426 -0.171559,0.476075 z"
         style="font-family:Futura;-inkscape-font-specification:Futura"
         id="path993" />
      <path
         d="m 102.10286,27.24017 h 0.48466 v 0.193003 q 0.25305,-0.250904 0.57043,-0.250904 0.36456,0 0.56829,0.229459 0.17585,0.195148 0.17585,0.636912 v 1.280256 h -0.48466 v -1.166599 q 0,-0.308805 -0.0858,-0.426752 -0.0836,-0.120091 -0.30451,-0.120091 -0.24019,0 -0.34098,0.158692 -0.0986,0.156547 -0.0986,0.546843 v 1.007907 h -0.48466 z"
         style="font-family:Futura;-inkscape-font-specification:Futura"
         id="path995" />
      <path
         d="m 106.41542,28.39819 h -1.49685 q 0.0193,0.257338 0.16727,0.409596 0.14797,0.150114 0.37958,0.150114 0.18013,0 0.29808,-0.08578 0.1158,-0.08578 0.26377,-0.317384 l 0.40745,0.227316 q -0.0944,0.160836 -0.19944,0.276638 -0.10508,0.113657 -0.22517,0.188714 -0.12009,0.07291 -0.25948,0.107224 -0.13939,0.03431 -0.30237,0.03431 -0.4675,0 -0.75057,-0.300227 -0.28307,-0.302372 -0.28307,-0.802037 0,-0.495375 0.27449,-0.802036 0.27664,-0.302372 0.73342,-0.302372 0.46106,0 0.72912,0.293794 0.26592,0.291649 0.26592,0.80847 z m -0.49537,-0.394585 q -0.1008,-0.386006 -0.4868,-0.386006 -0.0879,0 -0.16513,0.02788 -0.0772,0.02573 -0.14153,0.0772 -0.0622,0.04932 -0.10723,0.120091 -0.045,0.07077 -0.0686,0.160836 z"
         style="font-family:Futura;-inkscape-font-specification:Futura"
         id="path997" />
      <path
         d="m 108.15459,27.596154 -0.39887,0.212304 q -0.0944,-0.193004 -0.23375,-0.193004 -0.0665,0 -0.11366,0.04503 -0.0472,0.04289 -0.0472,0.111513 0,0.120091 0.27879,0.238038 0.38386,0.165125 0.51682,0.304516 0.13296,0.139392 0.13296,0.375285 0,0.302372 -0.22303,0.506098 -0.21659,0.193003 -0.52325,0.193003 -0.5254,0 -0.74414,-0.512531 l 0.41174,-0.190859 q 0.0858,0.150114 0.13081,0.190859 0.0879,0.08149 0.21016,0.08149 0.24447,0 0.24447,-0.223026 0,-0.128669 -0.18871,-0.240182 -0.0729,-0.03646 -0.14582,-0.07077 -0.0729,-0.03431 -0.14797,-0.07077 -0.21016,-0.102935 -0.29594,-0.20587 -0.10937,-0.130814 -0.10937,-0.336684 0,-0.272349 0.18657,-0.450341 0.19086,-0.177992 0.46321,-0.177992 0.40102,0 0.59616,0.413885 z"
         style="font-family:Futura;-inkscape-font-specification:Futura"
         id="path999" />
      <path
         d="m 109.22255,27.690511 v 1.638385 h -0.48251 v -1.638385 h -0.20587 V 27.24017 h 0.20587 v -0.765581 h 0.48251 v 0.765581 h 0.37528 v 0.450341 z"
         style="font-family:Futura;-inkscape-font-specification:Futura"
         id="path1001" />
      <path
         d="m 113.31851,28.524715 h -1.4175 l -0.36885,0.804181 h -0.53827 l 1.63839,-3.519096 1.58048,3.519096 h -0.54684 z m -0.20372,-0.469642 -0.49109,-1.125853 -0.51467,1.125853 z"
         style="font-family:Futura;-inkscape-font-specification:Futura"
         id="path1003" />
      <path
         d="m 114.70492,27.24017 0.54685,1.192332 0.58973,-1.383191 0.59402,1.383191 0.54041,-1.192332 h 0.54041 l -1.09369,2.245273 -0.58115,-1.344591 -0.58759,1.344591 -1.09154,-2.245273 z"
         style="font-family:Futura;-inkscape-font-specification:Futura"
         id="path1005" />
      <path
         d="m 119.31341,27.24017 h 0.48465 v 2.088726 h -0.48465 v -0.218738 q -0.29808,0.278783 -0.6412,0.278783 -0.43319,0 -0.71626,-0.313094 -0.28092,-0.319528 -0.28092,-0.797748 0,-0.469641 0.28092,-0.782736 0.28093,-0.313094 0.70339,-0.313094 0.36456,0 0.65407,0.300227 z m -1.14515,1.037929 q 0,0.300228 0.16083,0.488942 0.16513,0.190859 0.41603,0.190859 0.26806,0 0.43319,-0.184425 0.16512,-0.190859 0.16512,-0.484653 0,-0.293795 -0.16512,-0.484653 -0.16513,-0.18657 -0.4289,-0.18657 -0.24876,0 -0.41603,0.188714 -0.16512,0.190859 -0.16512,0.471786 z"
         style="font-family:Futura;-inkscape-font-specification:Futura"
         id="path1007" />
      <path
         d="m 120.40817,27.24017 h 0.48251 v 0.18657 q 0.13296,-0.139392 0.23589,-0.190859 0.10508,-0.05361 0.24876,-0.05361 0.19086,0 0.39888,0.12438 l -0.22089,0.441763 q -0.13724,-0.09865 -0.26806,-0.09865 -0.39458,0 -0.39458,0.596166 v 1.082964 h -0.48251 z"
         style="font-family:Futura;-inkscape-font-specification:Futura"
         id="path1009" />
      <path
         d="m 123.5627,25.706865 h 0.48465 v 3.622031 h -0.48465 v -0.218738 q -0.28522,0.278783 -0.64549,0.278783 -0.4289,0 -0.71197,-0.313094 -0.28092,-0.319528 -0.28092,-0.797748 0,-0.467497 0.28092,-0.780591 0.27879,-0.315239 0.70125,-0.315239 0.36671,0 0.65621,0.300227 z m -1.14515,2.571234 q 0,0.300228 0.16083,0.488942 0.16513,0.190859 0.41603,0.190859 0.26806,0 0.43319,-0.184425 0.16512,-0.190859 0.16512,-0.484653 0,-0.293795 -0.16512,-0.484653 -0.16513,-0.18657 -0.4289,-0.18657 -0.24876,0 -0.41603,0.188714 -0.16512,0.190859 -0.16512,0.471786 z"
         style="font-family:Futura;-inkscape-font-specification:Futura"
         id="path1011" />
      <path
         d="m 125.13676,27.24017 v 2.088726 h -0.48251 V 27.24017 Z m -0.55542,-0.868516 q 0,-0.126524 0.0922,-0.218737 0.0922,-0.09221 0.22088,-0.09221 0.13081,0 0.22303,0.09221 0.0922,0.09007 0.0922,0.220882 0,0.130813 -0.0922,0.223026 -0.0901,0.09221 -0.22089,0.09221 -0.13081,0 -0.22302,-0.09221 -0.0922,-0.09221 -0.0922,-0.225171 z"
         style="font-family:Futura;-inkscape-font-specification:Futura"
         id="path1013" />
      <path
         d="m 125.75222,27.24017 h 0.48465 v 0.193003 q 0.25305,-0.250904 0.57043,-0.250904 0.36456,0 0.56829,0.229459 0.17585,0.195148 0.17585,0.636912 v 1.280256 h -0.48465 v -1.166599 q 0,-0.308805 -0.0858,-0.426752 -0.0836,-0.120091 -0.30452,-0.120091 -0.24018,0 -0.34097,0.158692 -0.0987,0.156547 -0.0987,0.546843 v 1.007907 h -0.48465 z"
         style="font-family:Futura;-inkscape-font-specification:Futura"
         id="path1015" />
      <path
         d="m 130.18272,29.279572 q 0,0.14797 -0.0107,0.259483 -0.009,0.113657 -0.0257,0.199437 -0.0515,0.235893 -0.20158,0.405307 -0.28307,0.325961 -0.77844,0.325961 -0.41818,0 -0.68838,-0.22517 -0.27879,-0.231605 -0.32168,-0.641201 h 0.48466 q 0.0279,0.154403 0.0922,0.238038 0.15011,0.195148 0.43747,0.195148 0.52969,0 0.52969,-0.649778 v -0.29165 q -0.28736,0.293794 -0.66264,0.293794 -0.42676,0 -0.6991,-0.308805 -0.2745,-0.313095 -0.2745,-0.782736 0,-0.456775 0.2552,-0.776303 0.27449,-0.338828 0.72483,-0.338828 0.39458,0 0.65621,0.293794 V 27.24017 h 0.48251 z m -0.46321,-0.99075 q 0,-0.304517 -0.16298,-0.486798 -0.16512,-0.18657 -0.42246,-0.18657 -0.2745,0 -0.43319,0.203726 -0.14368,0.182281 -0.14368,0.471786 0,0.285216 0.14368,0.467497 0.15655,0.199437 0.43319,0.199437 0.27664,0 0.43747,-0.201581 0.14797,-0.182281 0.14797,-0.467497 z"
         style="font-family:Futura;-inkscape-font-specification:Futura"
         id="path1017" />
      <path
         d="m 132.41298,27.24017 0.54684,1.192332 0.58973,-1.383191 0.59402,1.383191 0.54041,-1.192332 h 0.54041 l -1.09368,2.245273 -0.58116,-1.344591 -0.58759,1.344591 -1.09154,-2.245273 z"
         style="font-family:Futura;-inkscape-font-specification:Futura"
         id="path1019" />
      <path
         d="m 136.03072,27.24017 v 2.088726 h -0.4825 V 27.24017 Z m -0.55542,-0.868516 q 0,-0.126524 0.0922,-0.218737 0.0922,-0.09221 0.22088,-0.09221 0.13081,0 0.22302,0.09221 0.0922,0.09007 0.0922,0.220882 0,0.130813 -0.0922,0.223026 -0.0901,0.09221 -0.22088,0.09221 -0.13081,0 -0.22302,-0.09221 -0.0922,-0.09221 -0.0922,-0.225171 z"
         style="font-family:Futura;-inkscape-font-specification:Futura"
         id="path1021" />
      <path
         d="m 137.14371,27.690511 v 1.638385 h -0.48251 v -1.638385 h -0.20587 V 27.24017 h 0.20587 v -0.765581 h 0.48251 v 0.765581 h 0.37529 v 0.450341 z"
         style="font-family:Futura;-inkscape-font-specification:Futura"
         id="path1023" />
      <path
         d="m 137.93396,25.706865 h 0.48251 v 1.707008 q 0.25733,-0.231604 0.56828,-0.231604 0.35384,0 0.56615,0.229459 0.18013,0.199437 0.18013,0.636912 v 1.280256 h -0.4825 v -1.235222 q 0,-0.250905 -0.0901,-0.362418 -0.0879,-0.113657 -0.28522,-0.113657 -0.25305,0 -0.35598,0.156547 -0.10079,0.158691 -0.10079,0.544698 v 1.010052 h -0.48251 z"
         style="font-family:Futura;-inkscape-font-specification:Futura"
         id="path1025" />
      <path
         d="m 141.7908,29.328896 v -3.536252 l 2.41469,2.5262 v -2.301029 h 0.49966 v 3.512662 l -2.41468,-2.519767 v 2.318186 z"
         style="font-family:Futura;-inkscape-font-specification:Futura"
         id="path1027" />
      <path
         d="m 145.33778,28.269521 q 0,-0.452486 0.32382,-0.769869 0.32382,-0.317383 0.78917,-0.317383 0.4675,0 0.79346,0.319528 0.32167,0.319527 0.32167,0.78488 0,0.469642 -0.32382,0.787025 -0.32596,0.315239 -0.79989,0.315239 -0.46964,0 -0.78702,-0.321672 -0.31739,-0.317384 -0.31739,-0.797748 z m 0.49323,0.0086 q 0,0.313095 0.16727,0.495376 0.17156,0.184425 0.45249,0.184425 0.28307,0 0.45249,-0.182281 0.16941,-0.182281 0.16941,-0.486797 0,-0.304517 -0.16941,-0.486798 -0.17156,-0.184425 -0.45249,-0.184425 -0.27664,0 -0.4482,0.184425 -0.17156,0.184426 -0.17156,0.476075 z"
         style="font-family:Futura;-inkscape-font-specification:Futura"
         id="path1029" />
      <path
         d="m 151.47314,28.524715 h -1.4175 l -0.36886,0.804181 h -0.53826 l 1.63838,-3.519096 1.58049,3.519096 h -0.54685 z m -0.20373,-0.469642 -0.49108,-1.125853 -0.51468,1.125853 z"
         style="font-family:Futura;-inkscape-font-specification:Futura"
         id="path1031" />
      <path
         d="m 152.68692,27.24017 h 0.48251 v 0.193003 q 0.13939,-0.145825 0.23803,-0.197292 0.10508,-0.05361 0.26377,-0.05361 0.35384,0 0.55971,0.308805 0.22732,-0.308805 0.61547,-0.308805 0.70554,0 0.70554,0.855648 v 1.290979 h -0.48466 v -1.160165 q 0,-0.300228 -0.0729,-0.424608 -0.0751,-0.126524 -0.24661,-0.126524 -0.19944,0 -0.29165,0.150113 -0.0901,0.150114 -0.0901,0.482509 v 1.078675 h -0.48466 v -1.153732 q 0,-0.557565 -0.32167,-0.557565 -0.20372,0 -0.29808,0.152258 -0.0922,0.152258 -0.0922,0.480364 v 1.078675 h -0.48251 z"
         style="font-family:Futura;-inkscape-font-specification:Futura"
         id="path1033" />
      <path
         d="m 156.64349,25.706865 v 1.775631 q 0.2895,-0.300227 0.65621,-0.300227 0.42246,0 0.70339,0.315239 0.28093,0.313094 0.28093,0.780591 0,0.482509 -0.28308,0.797748 -0.28092,0.313094 -0.70982,0.313094 -0.36242,0 -0.64763,-0.278783 v 0.218738 h -0.48251 v -3.622031 z m 1.14729,2.592679 q 0,-0.300228 -0.16298,-0.488942 -0.16512,-0.193003 -0.41388,-0.193003 -0.26592,0 -0.43319,0.18657 -0.16512,0.184425 -0.16512,0.480364 0,0.304516 0.16298,0.486797 0.16298,0.18657 0.42889,0.18657 0.25091,0 0.41603,-0.18657 0.16727,-0.188714 0.16727,-0.471786 z"
         style="font-family:Futura;-inkscape-font-specification:Futura"
         id="path1035" />
      <path
         d="m 159.27691,27.24017 v 2.088726 H 158.7944 V 27.24017 Z m -0.55542,-0.868516 q 0,-0.126524 0.0922,-0.218737 0.0922,-0.09221 0.22088,-0.09221 0.13082,0 0.22303,0.09221 0.0922,0.09007 0.0922,0.220882 0,0.130813 -0.0922,0.223026 -0.0901,0.09221 -0.22088,0.09221 -0.13082,0 -0.22303,-0.09221 -0.0922,-0.09221 -0.0922,-0.225171 z"
         style="font-family:Futura;-inkscape-font-specification:Futura"
         id="path1037" />
      <path
         d="m 161.91248,29.279572 q 0,0.14797 -0.0107,0.259483 -0.009,0.113657 -0.0257,0.199437 -0.0515,0.235893 -0.20158,0.405307 -0.28307,0.325961 -0.77845,0.325961 -0.41817,0 -0.68837,-0.22517 -0.27879,-0.231605 -0.32168,-0.641201 h 0.48466 q 0.0279,0.154403 0.0922,0.238038 0.15011,0.195148 0.43747,0.195148 0.52969,0 0.52969,-0.649778 v -0.29165 q -0.28736,0.293794 -0.66264,0.293794 -0.42676,0 -0.69911,-0.308805 -0.27449,-0.313095 -0.27449,-0.782736 0,-0.456775 0.25519,-0.776303 0.2745,-0.338828 0.72484,-0.338828 0.39458,0 0.65621,0.293794 V 27.24017 h 0.48251 z m -0.46321,-0.99075 q 0,-0.304517 -0.16298,-0.486798 -0.16512,-0.18657 -0.42246,-0.18657 -0.2745,0 -0.43319,0.203726 -0.14368,0.182281 -0.14368,0.471786 0,0.285216 0.14368,0.467497 0.15655,0.199437 0.43319,0.199437 0.27664,0 0.43747,-0.201581 0.14797,-0.182281 0.14797,-0.467497 z"
         style="font-family:Futura;-inkscape-font-specification:Futura"
         id="path1039" />
      <path
         d="m 163.00831,27.24017 v 1.198765 q 0,0.518965 0.40959,0.518965 0.4096,0 0.4096,-0.518965 V 27.24017 h 0.48251 v 1.209488 q 0,0.250904 -0.0622,0.433185 -0.06,0.162981 -0.20802,0.293794 -0.24447,0.212304 -0.6219,0.212304 -0.37528,0 -0.61975,-0.212304 -0.15011,-0.130813 -0.2123,-0.293794 -0.06,-0.145825 -0.06,-0.433185 V 27.24017 Z"
         style="font-family:Futura;-inkscape-font-specification:Futura"
         id="path1041" />
      <path
         d="m 165.40156,27.24017 v 2.088726 h -0.48251 V 27.24017 Z m -0.55542,-0.868516 q 0,-0.126524 0.0922,-0.218737 0.0922,-0.09221 0.22088,-0.09221 0.13081,0 0.22303,0.09221 0.0922,0.09007 0.0922,0.220882 0,0.130813 -0.0922,0.223026 -0.0901,0.09221 -0.22088,0.09221 -0.13082,0 -0.22303,-0.09221 -0.0922,-0.09221 -0.0922,-0.225171 z"
         style="font-family:Futura;-inkscape-font-specification:Futura"
         id="path1043" />
      <path
         d="m 166.51455,27.690511 v 1.638385 h -0.48251 v -1.638385 h -0.20587 V 27.24017 h 0.20587 v -0.765581 h 0.48251 v 0.765581 h 0.37528 v 0.450341 z"
         style="font-family:Futura;-inkscape-font-specification:Futura"
         id="path1045" />
      <path
         d="m 167.87629,28.940744 -0.93928,-1.700574 h 0.55971 l 0.63906,1.20091 0.59616,-1.20091 h 0.5447 l -1.66412,3.225301 h -0.55113 z"
         style="font-family:Futura;-inkscape-font-specification:Futura"
         id="path1047" />
    </g>
  </g>
</svg>
