<?xml version="1.0" encoding="UTF-8" standalone="no"?>
<!-- Created with Inkscape (http://www.inkscape.org/) -->

<svg
   width="420"
   height="100"
   viewBox="0 0 111.125 26.458334"
   version="1.1"
   id="svg5"
   inkscape:version="1.1.1 (c3084ef, 2021-09-22)"
   sodipodi:docname="Logo_small_output.svg"
   xmlns:inkscape="http://www.inkscape.org/namespaces/inkscape"
   xmlns:sodipodi="http://sodipodi.sourceforge.net/DTD/sodipodi-0.dtd"
   xmlns="http://www.w3.org/2000/svg"
   xmlns:svg="http://www.w3.org/2000/svg">
  <sodipodi:namedview
     id="namedview7"
     pagecolor="#ffffff"
     bordercolor="#666666"
     borderopacity="1.0"
     inkscape:pageshadow="2"
     inkscape:pageopacity="0.0"
     inkscape:pagecheckerboard="0"
     inkscape:document-units="px"
     showgrid="false"
     units="px"
     inkscape:zoom="0.87285714"
     inkscape:cx="253.76432"
     inkscape:cy="75.040917"
     inkscape:window-width="1440"
     inkscape:window-height="755"
     inkscape:window-x="0"
     inkscape:window-y="1105"
     inkscape:window-maximized="0"
     inkscape:current-layer="layer1" />
  <defs
     id="defs2">
    <rect
       x="39.399433"
       y="144.08936"
       width="354.59488"
       height="88.930145"
       id="rect10330" />
  </defs>
  <g
     inkscape:label="Layer 1"
     inkscape:groupmode="layer"
     id="layer1">
    <g
       aria-label="SEDERHANA"
       id="text1442"
       style="font-size:15.875px;line-height:1.25;stroke-width:0.264583">
      <path
         d="m 10.904738,9.7239669 q -0.6096,-0.4953 -1.2192002,-0.7239 -0.6096,-0.24765 -1.1811,-0.24765 -0.7238999,0 -1.1810999,0.3429 -0.4572,0.3429 -0.4572,0.89535 0,0.3810001 0.2286,0.6286501 0.2286,0.24765 0.59055,0.43815 0.3809999,0.17145 0.8381999,0.3048 0.47625,0.13335 0.93345,0.28575 1.8288002,0.6096 2.6670002,1.6383 0.85725,1.00965 0.85725,2.64795 0,1.1049 -0.381,2.00025 -0.36195,0.89535 -1.08585,1.54305 -0.70485,0.628649 -1.7526002,0.971549 -1.0287,0.36195 -2.3431499,0.36195 -2.7241499,0 -5.0482498,-1.619249 l 1.6001999,-3.0099 q 0.8382,0.74295 1.6573499,1.1049 0.81915,0.36195 1.61925,0.36195 0.9143999,0 1.3525499,-0.4191 0.4572,-0.4191 0.4572,-0.9525 0,-0.32385 -0.1143,-0.55245 -0.1143,-0.24765 -0.381,-0.43815 -0.2667,-0.20955 -0.7048499,-0.381 -0.4191,-0.17145 -1.0287,-0.381 -0.7239,-0.2286 -1.4287499,-0.4953 -0.6858,-0.28575 -1.23825,-0.74295 -0.5334,-0.4572 -0.8763,-1.143 -0.32385,-0.70485 -0.32385,-1.77165 0,-1.0668001 0.3429,-1.9240501 0.36195,-0.8762999 0.9906,-1.4858999 0.6477,-0.62865 1.5620999,-0.97155 0.93345,-0.3428999 2.0764499,-0.3428999 1.0668,0 2.2288502,0.3047999 1.16205,0.28575 2.22885,0.85725 z"
         style="font-size:19.05px;fill:#ff5555"
         id="path913" />
      <path
         d="M 21.893115,11.076516 H 18.19424 v 2.00025 h 3.4925 v 2.63525 h -3.4925 v 2.06375 h 3.698875 v 2.63525 H 15.08274 V 8.4412665 h 6.810375 z"
         style="fill:#434343"
         id="path915" />
      <path
         d="m 27.247951,17.775766 h 0.714375 q 0.809625,0 1.444625,-0.254 0.635,-0.254 1.063625,-0.6985 0.4445,-0.4445 0.66675,-1.04775 0.238125,-0.619125 0.238125,-1.349375 0,-0.714375 -0.238125,-1.3335 -0.238125,-0.619125 -0.682625,-1.063625 -0.428625,-0.4445 -1.063625,-0.6985 -0.635,-0.254 -1.42875,-0.254 h -0.714375 z m -3.1115,-9.3344995 h 4.60375 q 1.222375,0 2.286,0.492125 1.0795,0.492125 1.87325,1.3176245 0.809625,0.809625 1.27,1.905 0.460375,1.0795 0.460375,2.270125 0,1.17475 -0.460375,2.270125 -0.4445,1.0795 -1.254125,1.905 -0.79375,0.8255 -1.87325,1.317625 -1.063625,0.492125 -2.301875,0.492125 h -4.60375 z"
         style="fill:#434343"
         id="path917" />
      <path
         d="m 43.411183,11.076516 h -3.698875 v 2.00025 h 3.4925 v 2.63525 h -3.4925 v 2.06375 h 3.698875 v 2.63525 H 36.600808 V 8.4412665 h 6.810375 z"
         style="fill:#434343"
         id="path919" />
      <path
         d="m 48.766019,13.791141 h 0.587375 q 0.92075,0 1.412875,-0.381 0.492125,-0.381 0.492125,-1.095375 0,-0.714375 -0.492125,-1.095375 -0.492125,-0.381 -1.412875,-0.381 h -0.587375 z m 6.842125,6.619875 h -3.8735 l -2.968625,-4.60375 v 4.60375 h -3.1115 V 8.4412665 h 4.841875 q 1.000125,0 1.74625,0.301625 0.746125,0.28575 1.222375,0.79375 0.492125,0.5079995 0.73025,1.1747495 0.254,0.66675 0.254,1.42875 0,1.36525 -0.66675,2.2225 -0.650875,0.841375 -1.93675,1.143 z"
         style="fill:#434343"
         id="path921" />
      <path
         d="m 60.021146,13.060891 h 4.492625 V 8.4412665 h 3.1115 V 20.411016 h -3.1115 v -4.937125 h -4.492625 v 4.937125 h -3.1115 V 8.4412665 h 3.1115 z"
         style="fill:#434343"
         id="path923" />
      <path
         d="m 76.657898,15.966016 -1.397,-3.984625 -1.397,3.984625 z m 0.8255,2.365375 h -4.445 l -0.714375,2.079625 H 69.006148 L 73.562273,8.4412665 h 3.39725 l 4.556125,11.9697495 h -3.317875 z"
         style="fill:#434343"
         id="path925" />
      <path
         d="M 82.892556,20.411016 V 8.4412665 h 3.1115 l 5.74675,7.3183745 V 8.4412665 h 3.095625 V 20.411016 h -3.095625 l -5.74675,-7.318375 v 7.318375 z"
         style="fill:#434343"
         id="path927" />
      <path
         d="m 103.89691,15.966016 -1.397,-3.984625 -1.397,3.984625 z m 0.8255,2.365375 h -4.445 l -0.714373,2.079625 H 96.245162 L 100.80129,8.4412665 h 3.39725 l 4.55612,11.9697495 h -3.31787 z"
         style="fill:#434343"
         id="path929" />
    </g>
  </g>
</svg>
