<?xml version="1.0" encoding="UTF-8" standalone="no"?>
<!-- Created with Inkscape (http://www.inkscape.org/) -->

<svg
   width="420"
   height="410"
   viewBox="0 0 111.125 108.47915"
   version="1.1"
   id="svg5"
   inkscape:version="1.1.1 (c3084ef, 2021-09-22)"
   sodipodi:docname="logo_icon.svg"
   xmlns:inkscape="http://www.inkscape.org/namespaces/inkscape"
   xmlns:sodipodi="http://sodipodi.sourceforge.net/DTD/sodipodi-0.dtd"
   xmlns:xlink="http://www.w3.org/1999/xlink"
   xmlns="http://www.w3.org/2000/svg"
   xmlns:svg="http://www.w3.org/2000/svg">
  <sodipodi:namedview
     id="namedview7"
     pagecolor="#ffffff"
     bordercolor="#666666"
     borderopacity="1.0"
     inkscape:pageshadow="2"
     inkscape:pageopacity="0.0"
     inkscape:pagecheckerboard="0"
     inkscape:document-units="px"
     showgrid="false"
     units="px"
     inkscape:zoom="1.5683512"
     inkscape:cx="291.07001"
     inkscape:cy="339.52854"
     inkscape:window-width="1440"
     inkscape:window-height="755"
     inkscape:window-x="0"
     inkscape:window-y="1105"
     inkscape:window-maximized="0"
     inkscape:current-layer="layer1" />
  <defs
     id="defs2">
    <rect
       x="39.399433"
       y="144.08936"
       width="354.59488"
       height="88.930145"
       id="rect10330" />
    <filter
       inkscape:collect="always"
       style="color-interpolation-filters:sRGB"
       id="filter2612"
       x="-0.014433784"
       y="-0.014433784"
       width="1.0288676"
       height="1.0288676">
      <feGaussianBlur
         inkscape:collect="always"
         stdDeviation="0.42070795"
         id="feGaussianBlur2614" />
    </filter>
    <linearGradient
       inkscape:collect="always"
       xlink:href="#linearGradient1455-2"
       id="linearGradient1750"
       gradientUnits="userSpaceOnUse"
       x1="500.93137"
       y1="179.19286"
       x2="525.84326"
       y2="140.12851" />
    <linearGradient
       inkscape:collect="always"
       id="linearGradient1455-2">
      <stop
         style="stop-color:#dddddd;stop-opacity:1"
         offset="0"
         id="stop1451" />
      <stop
         style="stop-color:#eeeeee;stop-opacity:0.94117647"
         offset="1"
         id="stop1453" />
    </linearGradient>
  </defs>
  <g
     inkscape:label="Layer 1"
     inkscape:groupmode="layer"
     id="layer1">
    <g
       aria-label="SEDERHANA"
       id="text1442"
       style="font-size:15.875px;line-height:1.25;stroke-width:0.264583">
      <path
         d="m 10.904738,94.390633 q -0.6096,-0.4953 -1.2192002,-0.7239 -0.6096,-0.24765 -1.1811,-0.24765 -0.7238999,0 -1.1810999,0.3429 -0.4572,0.3429 -0.4572,0.89535 0,0.381 0.2286,0.62865 0.2286,0.24765 0.59055,0.43815 0.3809999,0.17145 0.8381999,0.3048 0.47625,0.13335 0.93345,0.28575 1.8288002,0.6096 2.6670002,1.6383 0.85725,1.00965 0.85725,2.647947 0,1.1049 -0.381,2.00025 -0.36195,0.89535 -1.08585,1.54305 -0.70485,0.62865 -1.7526002,0.97155 -1.0287,0.36195 -2.3431499,0.36195 -2.7241499,0 -5.0482498,-1.61925 l 1.6001999,-3.0099 q 0.8382,0.74295 1.6573499,1.1049 0.81915,0.36195 1.61925,0.36195 0.9143999,0 1.3525499,-0.4191 0.4572,-0.4191 0.4572,-0.9525 0,-0.32385 -0.1143,-0.55245 -0.1143,-0.24765 -0.381,-0.438147 -0.2667,-0.20955 -0.7048499,-0.381 -0.4191,-0.17145 -1.0287,-0.381 -0.7239,-0.2286 -1.4287499,-0.4953 -0.6858,-0.28575 -1.23825,-0.74295 -0.5334,-0.4572 -0.8763,-1.143 -0.32385,-0.70485 -0.32385,-1.77165 0,-1.0668 0.3429,-1.92405 0.36195,-0.8763 0.9906,-1.4859 0.6477,-0.62865 1.5620999,-0.97155 0.93345,-0.3429 2.0764499,-0.3429 1.0668,0 2.2288502,0.3048 1.16205,0.28575 2.22885,0.85725 z"
         style="font-size:19.05px;fill:#ff5555"
         id="path928" />
      <path
         d="M 21.893115,95.743182 H 18.19424 v 2.00025 h 3.4925 v 2.635248 h -3.4925 v 2.06375 h 3.698875 v 2.63525 H 15.08274 V 93.107932 h 6.810375 z"
         style="fill:#434343"
         id="path930" />
      <path
         d="m 27.247951,102.44243 h 0.714375 q 0.809625,0 1.444625,-0.254 0.635,-0.254 1.063625,-0.6985 0.4445,-0.4445 0.66675,-1.04775 0.238125,-0.619123 0.238125,-1.349373 0,-0.714375 -0.238125,-1.3335 -0.238125,-0.619125 -0.682625,-1.063625 -0.428625,-0.4445 -1.063625,-0.6985 -0.635,-0.254 -1.42875,-0.254 h -0.714375 z m -3.1115,-9.334498 h 4.60375 q 1.222375,0 2.286,0.492125 1.0795,0.492125 1.87325,1.317625 0.809625,0.809625 1.27,1.905 0.460375,1.0795 0.460375,2.270125 0,1.174753 -0.460375,2.270123 -0.4445,1.0795 -1.254125,1.905 -0.79375,0.8255 -1.87325,1.31763 -1.063625,0.49212 -2.301875,0.49212 h -4.60375 z"
         style="fill:#434343"
         id="path933" />
      <path
         d="m 43.411183,95.743182 h -3.698875 v 2.00025 h 3.4925 v 2.635248 h -3.4925 v 2.06375 h 3.698875 v 2.63525 H 36.600808 V 93.107932 h 6.810375 z"
         style="fill:#434343"
         id="path936" />
      <path
         d="m 48.766019,98.457807 h 0.587375 q 0.92075,0 1.412875,-0.381 0.492125,-0.381 0.492125,-1.095375 0,-0.714375 -0.492125,-1.095375 -0.492125,-0.381 -1.412875,-0.381 h -0.587375 z m 6.842125,6.619873 h -3.8735 l -2.968625,-4.60375 v 4.60375 h -3.1115 V 93.107932 h 4.841875 q 1.000125,0 1.74625,0.301625 0.746125,0.28575 1.222375,0.79375 0.492125,0.508 0.73025,1.17475 0.254,0.66675 0.254,1.42875 0,1.36525 -0.66675,2.2225 -0.650875,0.841375 -1.93675,1.143003 z"
         style="fill:#434343"
         id="path938" />
      <path
         d="m 60.021146,97.727557 h 4.492625 v -4.619625 h 3.1115 v 11.969748 h -3.1115 v -4.93712 h -4.492625 v 4.93712 h -3.1115 V 93.107932 h 3.1115 z"
         style="fill:#434343"
         id="path940" />
      <path
         d="m 76.657898,100.63268 -1.397,-3.984623 -1.397,3.984623 z m 0.8255,2.36538 h -4.445 l -0.714375,2.07962 h -3.317875 l 4.556125,-11.969748 h 3.39725 l 4.556125,11.969748 h -3.317875 z"
         style="fill:#434343"
         id="path942" />
      <path
         d="M 82.892556,105.07768 V 93.107932 h 3.1115 l 5.74675,7.318378 v -7.318378 h 3.095625 v 11.969748 h -3.095625 l -5.74675,-7.318373 v 7.318373 z"
         style="fill:#434343"
         id="path944" />
      <path
         d="m 103.89691,100.63268 -1.397,-3.984623 -1.397,3.984623 z m 0.8255,2.36538 h -4.445 l -0.714373,2.07962 h -3.317875 l 4.556128,-11.969748 h 3.39725 l 4.55612,11.969748 h -3.31787 z"
         style="fill:#434343"
         id="path946" />
    </g>
    <g
       id="g1276"
       transform="matrix(2.0576883,0,0,2.0576883,-68.872285,-87.716708)">
      <path
         sodipodi:type="star"
         style="fill:url(#linearGradient1750);fill-opacity:1;stroke:none;stroke-width:22.6807;stroke-linejoin:round;stroke-miterlimit:4;stroke-dasharray:none"
         id="dice"
         inkscape:flatsided="true"
         sodipodi:sides="6"
         sodipodi:cx="509.86108"
         sodipodi:cy="153.92033"
         sodipodi:r1="358.58868"
         sodipodi:r2="310.54691"
         sodipodi:arg1="0.52359878"
         sodipodi:arg2="1.0471976"
         inkscape:rounded="0.1"
         inkscape:randomized="0"
         transform="matrix(0.05577421,0,0,0.05577421,32.035998,57.37753)"
         d="m 820.40799,333.21468 c -17.92943,31.05469 -274.68804,179.29434 -310.54691,179.29434 -35.85887,0 -292.61747,-148.23965 -310.54691,-179.29435 -17.92943,-31.05469 -17.92943,-327.5339886 0,-358.58868 17.92944,-31.05469 274.68805,-179.29434 310.54692,-179.29434 35.85886,0 292.61747,148.239652 310.5469,179.294343 17.92944,31.0546913 17.92944,327.533997 0,358.588687 z" />
      <path
         sodipodi:type="star"
         style="fill:#cccccc;fill-opacity:0.37232;stroke:none;stroke-width:22.6772;stroke-linejoin:round;stroke-opacity:1;filter:url(#filter2612)"
         id="dice_shade"
         inkscape:flatsided="true"
         sodipodi:sides="4"
         sodipodi:cx="164.67024"
         sodipodi:cy="374.80499"
         sodipodi:r1="44.721432"
         sodipodi:r2="31.622828"
         sodipodi:arg1="0.78539816"
         sodipodi:arg2="1.5707963"
         inkscape:rounded="0.1"
         inkscape:randomized="0"
         transform="matrix(0.25486402,-0.150273,0,0.28944728,27.259267,-12.456036)"
         d="m 196.29307,406.42782 c -4.47214,4.47214 -58.77351,4.47214 -63.24566,0 -4.47214,-4.47214 -4.47214,-58.77351 0,-63.24565 4.47215,-4.47215 58.77352,-4.47215 63.24566,-10e-6 4.47214,4.47215 4.47214,58.77352 0,63.24566 z" />
      <g
         aria-label="E"
         transform="matrix(0.92805667,0.53876047,0,1.0775204,35.473097,40.962315)"
         id="logo_E_text"
         style="font-size:19.6439px;line-height:1.25;fill:#333333;stroke-width:0.245548">
        <path
           d="M 21.763939,26.576912 H 11.433627 V 12.294799 h 10.330312 v 2.762424 h -6.666265 v 2.465079 h 6.186678 v 2.762423 h -6.186678 v 3.529764 h 6.666265 z"
           style="font-weight:bold;-inkscape-font-specification:'sans-serif Bold'"
           id="path935" />
      </g>
      <g
         aria-label="D"
         transform="matrix(0.92952594,-0.5379086,0,1.0758172,35.473097,40.962315)"
         id="logo_D_path"
         style="font-size:19.675px;line-height:1.25;fill:#333333;stroke-width:0.245937">
        <path
           d="m 35.252271,50.494589 h 0.885375 q 1.003425,0 1.790425,-0.3148 0.787,-0.3148 1.318225,-0.8657 0.5509,-0.5509 0.82635,-1.29855 0.295125,-0.767325 0.295125,-1.672375 0,-0.885374 -0.295125,-1.652699 -0.295125,-0.767325 -0.846025,-1.318225 -0.531225,-0.5509 -1.318225,-0.8657 -0.787,-0.3148 -1.77075,-0.3148 h -0.885375 z m -3.8563,-11.568899 h 5.70575 q 1.514975,0 2.8332,0.609925 1.3379,0.609925 2.32165,1.633025 1.003425,1.003425 1.574,2.361 0.570575,1.3379 0.570575,2.813524 0,1.45595 -0.570575,2.813525 -0.5509,1.3379 -1.554325,2.361 -0.98375,1.0231 -2.32165,1.633025 -1.318225,0.609925 -2.852875,0.609925 h -5.70575 z"
           style="font-weight:bold;font-family:Futura;-inkscape-font-specification:'Futura Bold'"
           id="path932" />
      </g>
      <g
         aria-label="S"
         transform="matrix(0.22869373,0.13274692,-0.22869373,0.13274692,93.432933,2.08744)"
         id="logo_S_text"
         style="font-size:80px;line-height:1.25;white-space:pre;shape-inside:url(#rect26150-5);fill:#ff5555">
        <path
           d="m 141.25055,259.19041 q -2.56,-2.08 -5.12,-3.04 -2.56,-1.04 -4.96,-1.04 -3.04,0 -4.96,1.44 -1.92,1.44 -1.92,3.76 0,1.6 0.96,2.64 0.96,1.04 2.48,1.84 1.6,0.72 3.52,1.28 2,0.56 3.92,1.2 7.68,2.56 11.2,6.88 3.6,4.24 3.6,11.12 0,4.64 -1.6,8.4 -1.52,3.76 -4.56,6.48 -2.96,2.64 -7.36,4.08 -4.32,1.52 -9.84,1.52 -11.44,0 -21.2,-6.8 l 6.72,-12.64 q 3.52,3.12 6.96,4.64 3.44,1.52 6.8,1.52 3.84,0 5.68,-1.76 1.92,-1.76 1.92,-4 0,-1.36 -0.48,-2.32 -0.48,-1.04 -1.6,-1.84 -1.12,-0.88 -2.96,-1.6 -1.76,-0.72 -4.32,-1.6 -3.04,-0.96 -6,-2.08 -2.88,-1.2 -5.2,-3.12 -2.24,-1.92 -3.68,-4.8 -1.36,-2.96 -1.36,-7.44 0,-4.48 1.44,-8.08 1.52,-3.68 4.16,-6.24 2.72,-2.64 6.56,-4.08 3.92,-1.44 8.72,-1.44 4.48,0 9.36,1.28 4.88,1.2 9.36,3.6 z"
           style="font-weight:bold;font-family:Futura;-inkscape-font-specification:'Futura Bold'"
           id="path929" />
      </g>
    </g>
  </g>
</svg>
