<?xml version="1.0" encoding="UTF-8" standalone="no"?>
<!-- Created with Inkscape (http://www.inkscape.org/) -->

<svg
   width="188.97638"
   height="188.97638"
   viewBox="0 0 50 50"
   version="1.1"
   id="svg5"
   sodipodi:docname="icon_output.svg"
   xmlns:inkscape="http://www.inkscape.org/namespaces/inkscape"
   xmlns:sodipodi="http://sodipodi.sourceforge.net/DTD/sodipodi-0.dtd"
   xmlns:xlink="http://www.w3.org/1999/xlink"
   xmlns="http://www.w3.org/2000/svg"
   xmlns:svg="http://www.w3.org/2000/svg">
  <sodipodi:namedview
     id="namedview7"
     pagecolor="#ffffff"
     bordercolor="#666666"
     borderopacity="1.0"
     inkscape:pageshadow="2"
     inkscape:pageopacity="0.0"
     inkscape:pagecheckerboard="0"
     inkscape:document-units="px"
     showgrid="false"
     inkscape:zoom="2.6798641"
     inkscape:cx="84.519211"
     inkscape:cy="81.533985"
     inkscape:window-width="1440"
     inkscape:window-height="755"
     inkscape:window-x="0"
     inkscape:window-y="25"
     inkscape:window-maximized="0"
     inkscape:current-layer="layer1"
     showguides="false"
     width="50mm"
     units="px" />
  <defs
     id="defs2">
    <linearGradient
       id="linearGradient2266"
       inkscape:swatch="solid">
      <stop
         style="stop-color:#cccccc;stop-opacity:1;"
         offset="0"
         id="stop2264" />
    </linearGradient>
    <linearGradient
       inkscape:collect="always"
       id="linearGradient1455-2">
      <stop
         style="stop-color:#dddddd;stop-opacity:1"
         offset="0"
         id="stop1451" />
      <stop
         style="stop-color:#eeeeee;stop-opacity:0.94117647"
         offset="1"
         id="stop1453" />
    </linearGradient>
    <rect
       x="101.81081"
       y="231.08376"
       width="144.67851"
       height="95.782539"
       id="rect26150" />
    <rect
       x="136.64082"
       y="244.4799"
       width="44.207329"
       height="91.763695"
       id="rect21936" />
    <rect
       x="114.01714"
       y="281.64499"
       width="92.874893"
       height="53.61071"
       id="rect1492" />
    <rect
       x="101.81081"
       y="231.08376"
       width="144.67851"
       height="95.782539"
       id="rect26150-5" />
    <linearGradient
       inkscape:collect="always"
       xlink:href="#linearGradient1455-2"
       id="linearGradient1750"
       gradientUnits="userSpaceOnUse"
       x1="500.93137"
       y1="179.19286"
       x2="525.84326"
       y2="140.12851" />
    <filter
       inkscape:collect="always"
       style="color-interpolation-filters:sRGB"
       id="filter2612"
       x="-0.014433784"
       y="-0.014433784"
       width="1.0288676"
       height="1.0288676">
      <feGaussianBlur
         inkscape:collect="always"
         stdDeviation="0.42070795"
         id="feGaussianBlur2614" />
    </filter>
  </defs>
  <g
     inkscape:label="Layer 1"
     inkscape:groupmode="layer"
     id="layer1">
    <path
       sodipodi:type="star"
       style="fill:url(#linearGradient1750);stroke-width:22.68073344;stroke-linejoin:round;fill-opacity:1;stroke-miterlimit:4;stroke-dasharray:none;stroke:none"
       id="dice"
       inkscape:flatsided="true"
       sodipodi:sides="6"
       sodipodi:cx="509.86108"
       sodipodi:cy="153.92033"
       sodipodi:r1="358.58868"
       sodipodi:r2="310.54691"
       sodipodi:arg1="0.52359878"
       sodipodi:arg2="1.0471976"
       inkscape:rounded="0.1"
       inkscape:randomized="0"
       transform="matrix(0.05577421,0,0,0.05577421,-3.437099,16.415215)"
       d="m 820.40799,333.21468 c -17.92943,31.05469 -274.68804,179.29434 -310.54691,179.29434 -35.85887,0 -292.61747,-148.23965 -310.54691,-179.29435 -17.92943,-31.05469 -17.92943,-327.5339886 0,-358.58868 17.92944,-31.05469 274.68805,-179.29434 310.54692,-179.29434 35.85886,0 292.61747,148.239652 310.5469,179.294343 17.92944,31.0546913 17.92944,327.533997 0,358.588687 z" />
    <path
       sodipodi:type="star"
       style="fill:#cccccc;fill-opacity:0.37231973;stroke-width:22.6772;stroke-linejoin:round;stroke:none;stroke-opacity:1;filter:url(#filter2612)"
       id="dice_shade"
       inkscape:flatsided="true"
       sodipodi:sides="4"
       sodipodi:cx="164.67024"
       sodipodi:cy="374.80499"
       sodipodi:r1="44.721432"
       sodipodi:r2="31.622828"
       sodipodi:arg1="0.78539816"
       sodipodi:arg2="1.5707963"
       inkscape:rounded="0.1"
       inkscape:randomized="0"
       transform="matrix(0.25486402,-0.150273,0,0.28944728,-8.21383,-53.418351)"
       d="m 196.29307,406.42782 c -4.47214,4.47214 -58.77351,4.47214 -63.24566,0 -4.47214,-4.47214 -4.47214,-58.77351 0,-63.24565 4.47215,-4.47215 58.77352,-4.47215 63.24566,-10e-6 4.47214,4.47215 4.47214,58.77352 0,63.24566 z" />
    <g
       aria-label="E"
       transform="matrix(0.92805667,0.53876047,0,1.0775204,0,0)"
       id="logo_E_text"
       style="font-size:19.6439px;line-height:1.25;fill:#333333;stroke-width:0.245548">
      <path
         d="M 21.763939,26.576912 H 11.433627 V 12.294799 h 10.330312 v 2.762424 h -6.666265 v 2.465079 h 6.186678 v 2.762423 h -6.186678 v 3.529764 h 6.666265 z"
         style="font-weight:bold;-inkscape-font-specification:'sans-serif Bold'"
         id="path935" />
    </g>
    <g
       aria-label="D"
       transform="matrix(0.92952594,-0.5379086,0,1.0758172,0,0)"
       id="logo_D_path"
       style="font-size:19.675px;line-height:1.25;fill:#333333;stroke-width:0.245937">
      <path
         d="m 35.252271,50.494589 h 0.885375 q 1.003425,0 1.790425,-0.3148 0.787,-0.3148 1.318225,-0.8657 0.5509,-0.5509 0.82635,-1.29855 0.295125,-0.767325 0.295125,-1.672375 0,-0.885374 -0.295125,-1.652699 -0.295125,-0.767325 -0.846025,-1.318225 -0.531225,-0.5509 -1.318225,-0.8657 -0.787,-0.3148 -1.77075,-0.3148 h -0.885375 z m -3.8563,-11.568899 h 5.70575 q 1.514975,0 2.8332,0.609925 1.3379,0.609925 2.32165,1.633025 1.003425,1.003425 1.574,2.361 0.570575,1.3379 0.570575,2.813524 0,1.45595 -0.570575,2.813525 -0.5509,1.3379 -1.554325,2.361 -0.98375,1.0231 -2.32165,1.633025 -1.318225,0.609925 -2.852875,0.609925 h -5.70575 z"
         style="font-weight:bold;font-family:Futura;-inkscape-font-specification:'Futura Bold'"
         id="path932" />
    </g>
    <g
       aria-label="S"
       transform="matrix(0.22869373,0.13274692,-0.22869373,0.13274692,57.959836,-38.874875)"
       id="logo_S_text"
       style="font-size:80px;line-height:1.25;white-space:pre;shape-inside:url(#rect26150-5);fill:#ff5555">
      <path
         d="m 141.25055,259.19041 q -2.56,-2.08 -5.12,-3.04 -2.56,-1.04 -4.96,-1.04 -3.04,0 -4.96,1.44 -1.92,1.44 -1.92,3.76 0,1.6 0.96,2.64 0.96,1.04 2.48,1.84 1.6,0.72 3.52,1.28 2,0.56 3.92,1.2 7.68,2.56 11.2,6.88 3.6,4.24 3.6,11.12 0,4.64 -1.6,8.4 -1.52,3.76 -4.56,6.48 -2.96,2.64 -7.36,4.08 -4.32,1.52 -9.84,1.52 -11.44,0 -21.2,-6.8 l 6.72,-12.64 q 3.52,3.12 6.96,4.64 3.44,1.52 6.8,1.52 3.84,0 5.68,-1.76 1.92,-1.76 1.92,-4 0,-1.36 -0.48,-2.32 -0.48,-1.04 -1.6,-1.84 -1.12,-0.88 -2.96,-1.6 -1.76,-0.72 -4.32,-1.6 -3.04,-0.96 -6,-2.08 -2.88,-1.2 -5.2,-3.12 -2.24,-1.92 -3.68,-4.8 -1.36,-2.96 -1.36,-7.44 0,-4.48 1.44,-8.08 1.52,-3.68 4.16,-6.24 2.72,-2.64 6.56,-4.08 3.92,-1.44 8.72,-1.44 4.48,0 9.36,1.28 4.88,1.2 9.36,3.6 z"
         style="font-weight:bold;font-family:Futura;-inkscape-font-specification:'Futura Bold'"
         id="path929" />
    </g>
  </g>
</svg>
