<?xml version="1.0" encoding="UTF-8" standalone="no"?>
<!-- Created with Inkscape (http://www.inkscape.org/) -->

<svg
   width="188.97638"
   height="188.97638"
   viewBox="0 0 50 50"
   version="1.1"
   id="svg5"
   sodipodi:docname="icon_small_output.svg"
   xmlns:inkscape="http://www.inkscape.org/namespaces/inkscape"
   xmlns:sodipodi="http://sodipodi.sourceforge.net/DTD/sodipodi-0.dtd"
   xmlns:xlink="http://www.w3.org/1999/xlink"
   xmlns="http://www.w3.org/2000/svg"
   xmlns:svg="http://www.w3.org/2000/svg">
  <sodipodi:namedview
     id="namedview7"
     pagecolor="#ffffff"
     bordercolor="#666666"
     borderopacity="1.0"
     inkscape:pageshadow="2"
     inkscape:pageopacity="0.0"
     inkscape:pagecheckerboard="0"
     inkscape:document-units="px"
     showgrid="false"
     inkscape:zoom="2.4524456"
     inkscape:cx="93.987814"
     inkscape:cy="87.055958"
     inkscape:window-width="1440"
     inkscape:window-height="755"
     inkscape:window-x="0"
     inkscape:window-y="1105"
     inkscape:window-maximized="0"
     inkscape:current-layer="layer1"
     showguides="false"
     width="50mm"
     units="px" />
  <defs
     id="defs2">
    <linearGradient
       inkscape:collect="always"
       id="linearGradient1813">
      <stop
         style="stop-color:#eeeeee;stop-opacity:1"
         offset="0"
         id="stop1809" />
      <stop
         style="stop-color:#cccccc;stop-opacity:1"
         offset="1"
         id="stop1811" />
    </linearGradient>
    <linearGradient
       id="linearGradient2266"
       inkscape:swatch="solid">
      <stop
         style="stop-color:#cccccc;stop-opacity:1;"
         offset="0"
         id="stop2264" />
    </linearGradient>
    <rect
       x="101.81081"
       y="231.08376"
       width="144.67851"
       height="95.782539"
       id="rect26150" />
    <rect
       x="136.64082"
       y="244.4799"
       width="44.207329"
       height="91.763695"
       id="rect21936" />
    <rect
       x="114.01714"
       y="281.64499"
       width="92.874893"
       height="53.61071"
       id="rect1492" />
    <rect
       x="101.81081"
       y="231.08376"
       width="144.67851"
       height="95.782539"
       id="rect26150-5" />
    <linearGradient
       inkscape:collect="always"
       xlink:href="#linearGradient1813"
       id="linearGradient1807"
       x1="50.310314"
       y1="-9.6533728"
       x2="66.83194"
       y2="4.694356"
       gradientUnits="userSpaceOnUse" />
    <filter
       inkscape:collect="always"
       style="color-interpolation-filters:sRGB"
       id="filter2241"
       x="-0.012"
       y="-0.012"
       width="1.024"
       height="1.024">
      <feGaussianBlur
         inkscape:collect="always"
         stdDeviation="0.40300101"
         id="feGaussianBlur2243" />
    </filter>
  </defs>
  <g
     inkscape:label="Layer 1"
     inkscape:groupmode="layer"
     id="layer1">
    <path
       sodipodi:type="star"
       style="fill:url(#linearGradient1807);fill-opacity:1;stroke-width:4.7811;stroke-linejoin:round"
       id="path1271-9"
       inkscape:flatsided="true"
       sodipodi:sides="4"
       sodipodi:cx="26.120728"
       sodipodi:cy="29.852261"
       sodipodi:r1="54.122662"
       sodipodi:r2="38.2705"
       sodipodi:arg1="0.78539816"
       sodipodi:arg2="1.5707963"
       inkscape:rounded="0.05"
       inkscape:randomized="0"
       transform="matrix(0.49627667,0,0,0.49627667,12.036893,10.185019)"
       d="m 64.391229,68.122761 c -2.706133,2.706134 -73.8348693,2.706134 -76.541002,10e-7 -2.706133,-2.706133 -2.706134,-73.8348692 -1e-6,-76.5410023 2.7061335,-2.7061327 73.834869,-2.7061337 76.541002,-3e-7 2.706134,2.7061331 2.706134,73.8348686 10e-7,76.5410016 z" />
    <path
       sodipodi:type="star"
       style="fill:#dddddd;fill-opacity:1;stroke-width:4.7811;stroke-linejoin:round;filter:url(#filter2241)"
       id="path1271"
       inkscape:flatsided="true"
       sodipodi:sides="4"
       sodipodi:cx="26.120728"
       sodipodi:cy="29.852261"
       sodipodi:r1="54.122662"
       sodipodi:r2="38.2705"
       sodipodi:arg1="0.78539816"
       sodipodi:arg2="1.5707963"
       inkscape:rounded="0.05"
       inkscape:randomized="0"
       transform="matrix(0.47146284,0,0,0.47146284,12.685048,10.925768)"
       d="m 64.391229,68.122761 c -2.706133,2.706134 -73.8348693,2.706134 -76.541002,10e-7 -2.706133,-2.706133 -2.706134,-73.8348692 -1e-6,-76.5410023 2.7061335,-2.7061327 73.834869,-2.7061337 76.541002,-3e-7 2.706134,2.7061331 2.706134,73.8348686 10e-7,76.5410016 z" />
    <g
       aria-label="S"
       transform="scale(1.0970302,0.91155193)"
       id="text2789"
       style="font-size:34.4545px;line-height:1.25;fill:#ff5555;stroke-width:0.21534">
      <path
         d="m 28.628837,21.086127 q -1.102544,-0.895817 -2.205088,-1.309271 -1.102544,-0.447909 -2.136179,-0.447909 -1.309271,0 -2.136179,0.620181 -0.826908,0.620181 -0.826908,1.619362 0,0.689089 0.413454,1.136998 0.413454,0.447908 1.068089,0.792453 0.68909,0.310091 1.515998,0.551272 0.861363,0.241182 1.688271,0.516818 3.307631,1.102544 4.823629,2.963087 1.550453,1.826088 1.550453,4.789175 0,1.998361 -0.68909,3.617722 -0.654636,1.619362 -1.963907,2.790815 -1.274816,1.136998 -3.169813,1.757179 -1.860543,0.654636 -4.237904,0.654636 -4.926993,0 -9.130442,-2.928633 l 2.894178,-5.443811 q 1.515998,1.343726 2.997541,1.998361 1.481544,0.654636 2.928633,0.654636 1.653816,0 2.446269,-0.757999 0.826908,-0.757999 0.826908,-1.722725 0,-0.585727 -0.206727,-0.99918 -0.206727,-0.447909 -0.68909,-0.792454 -0.482363,-0.378999 -1.274816,-0.68909 -0.757999,-0.31009 -1.860543,-0.68909 -1.309271,-0.413454 -2.584087,-0.895817 -1.240362,-0.516817 -2.239543,-1.343725 -0.964726,-0.826908 -1.584907,-2.06727 -0.585726,-1.274817 -0.585726,-3.204269 0,-1.929451 0.620181,-3.479904 0.654635,-1.584907 1.791634,-2.687451 1.171453,-1.136998 2.825268,-1.757179 1.688271,-0.620181 3.755541,-0.620181 1.929452,0 4.031176,0.551272 2.101724,0.516817 4.031176,1.550452 z"
         style="font-weight:bold;font-family:Futura;-inkscape-font-specification:'Futura Bold'"
         id="path924" />
    </g>
  </g>
</svg>
